<svg xmlns="http://www.w3.org/2000/svg" width="700" height="470" viewBox="0 0 700 470" role="img" aria-labelledby="title desc">
<title id="title">同时到达判断误差与犹豫如何叠加？</title>
<desc id="desc">总流量每小时一千五百辆时，颜色和数字表示四向停车平均延误。</desc>
<style>
text{font-family:-apple-system,BlinkMacSystemFont,"Segoe UI","Noto Sans SC",sans-serif;fill:#28313b}
.muted{fill:#66717d} .axis{stroke:#66717d;stroke-width:1} .grid{stroke:#d8dde3;stroke-width:1}
.awsc{stroke:#c65d4b;fill:none} .signal{stroke:#347d67;fill:none}
.awsc-fill{fill:#c65d4b} .signal-fill{fill:#347d67} .surge{fill:#b58a35}
@media(prefers-color-scheme:dark){
  text{fill:#f2f0eb} .muted{fill:#c5c8cc} .axis{stroke:#c5c8cc} .grid{stroke:#555b63}
  .awsc{stroke:#ef8c78} .signal{stroke:#65b99d} .awsc-fill{fill:#ef8c78} .signal-fill{fill:#65b99d} .surge{fill:#d8b566}
}
</style>
<text x="350" y="24" text-anchor="middle" font-size="16" font-weight="600">同时到达判断误差与犹豫如何叠加？</text><text class="muted" x="133" y="94" text-anchor="end" font-size="10">3</text><rect x="145" y="58" width="87" height="59" rx="3" class="awsc-fill" opacity="0.13"/><text x="188.5" y="93" text-anchor="middle" font-size="11">12.8s</text><rect x="235" y="58" width="87" height="59" rx="3" class="awsc-fill" opacity="0.20"/><text x="278.5" y="93" text-anchor="middle" font-size="11">149.5s</text><rect x="325" y="58" width="87" height="59" rx="3" class="awsc-fill" opacity="0.37"/><text x="368.5" y="93" text-anchor="middle" font-size="11">446.6s</text><rect x="415" y="58" width="87" height="59" rx="3" class="awsc-fill" opacity="0.56"/><text x="458.5" y="93" text-anchor="middle" font-size="11">809.1s</text><rect x="505" y="58" width="87" height="59" rx="3" class="awsc-fill" opacity="0.67"/><text x="548.5" y="93" text-anchor="middle" font-size="11">1000.8s</text><text class="muted" x="133" y="156" text-anchor="end" font-size="10">2</text><rect x="145" y="120" width="87" height="59" rx="3" class="awsc-fill" opacity="0.13"/><text x="188.5" y="155" text-anchor="middle" font-size="11">12.8s</text><rect x="235" y="120" width="87" height="59" rx="3" class="awsc-fill" opacity="0.15"/><text x="278.5" y="155" text-anchor="middle" font-size="11">58.7s</text><rect x="325" y="120" width="87" height="59" rx="3" class="awsc-fill" opacity="0.25"/><text x="368.5" y="155" text-anchor="middle" font-size="11">231.5s</text><rect x="415" y="120" width="87" height="59" rx="3" class="awsc-fill" opacity="0.41"/><text x="458.5" y="155" text-anchor="middle" font-size="11">535.6s</text><rect x="505" y="120" width="87" height="59" rx="3" class="awsc-fill" opacity="0.51"/><text x="548.5" y="155" text-anchor="middle" font-size="11">712.4s</text><text class="muted" x="133" y="218" text-anchor="end" font-size="10">1</text><rect x="145" y="182" width="87" height="59" rx="3" class="awsc-fill" opacity="0.13"/><text x="188.5" y="217" text-anchor="middle" font-size="11">12.8s</text><rect x="235" y="182" width="87" height="59" rx="3" class="awsc-fill" opacity="0.13"/><text x="278.5" y="217" text-anchor="middle" font-size="11">23.3s</text><rect x="325" y="182" width="87" height="59" rx="3" class="awsc-fill" opacity="0.15"/><text x="368.5" y="217" text-anchor="middle" font-size="11">48.7s</text><rect x="415" y="182" width="87" height="59" rx="3" class="awsc-fill" opacity="0.21"/><text x="458.5" y="217" text-anchor="middle" font-size="11">171.1s</text><rect x="505" y="182" width="87" height="59" rx="3" class="awsc-fill" opacity="0.28"/><text x="548.5" y="217" text-anchor="middle" font-size="11">289.5s</text><text class="muted" x="133" y="280" text-anchor="end" font-size="10">0.5</text><rect x="145" y="244" width="87" height="59" rx="3" class="awsc-fill" opacity="0.13"/><text x="188.5" y="279" text-anchor="middle" font-size="11">12.8s</text><rect x="235" y="244" width="87" height="59" rx="3" class="awsc-fill" opacity="0.13"/><text x="278.5" y="279" text-anchor="middle" font-size="11">16.8s</text><rect x="325" y="244" width="87" height="59" rx="3" class="awsc-fill" opacity="0.13"/><text x="368.5" y="279" text-anchor="middle" font-size="11">21.5s</text><rect x="415" y="244" width="87" height="59" rx="3" class="awsc-fill" opacity="0.14"/><text x="458.5" y="279" text-anchor="middle" font-size="11">38.2s</text><rect x="505" y="244" width="87" height="59" rx="3" class="awsc-fill" opacity="0.15"/><text x="548.5" y="279" text-anchor="middle" font-size="11">60.8s</text><text class="muted" x="133" y="342" text-anchor="end" font-size="10">0</text><rect x="145" y="306" width="87" height="59" rx="3" class="awsc-fill" opacity="0.13"/><text x="188.5" y="341" text-anchor="middle" font-size="11">12.8s</text><rect x="235" y="306" width="87" height="59" rx="3" class="awsc-fill" opacity="0.13"/><text x="278.5" y="341" text-anchor="middle" font-size="11">12.8s</text><rect x="325" y="306" width="87" height="59" rx="3" class="awsc-fill" opacity="0.13"/><text x="368.5" y="341" text-anchor="middle" font-size="11">12.8s</text><rect x="415" y="306" width="87" height="59" rx="3" class="awsc-fill" opacity="0.13"/><text x="458.5" y="341" text-anchor="middle" font-size="11">12.8s</text><rect x="505" y="306" width="87" height="59" rx="3" class="awsc-fill" opacity="0.13"/><text x="548.5" y="341" text-anchor="middle" font-size="11">12.8s</text><text class="muted" x="188.5" y="386" text-anchor="middle" font-size="10">0</text><text class="muted" x="278.5" y="386" text-anchor="middle" font-size="10">0.5</text><text class="muted" x="368.5" y="386" text-anchor="middle" font-size="10">1</text><text class="muted" x="458.5" y="386" text-anchor="middle" font-size="10">2</text><text class="muted" x="548.5" y="386" text-anchor="middle" font-size="10">3</text><text class="muted" x="370.0" y="416" text-anchor="middle" font-size="11">被视为同时到达的时间窗（秒）</text><text class="muted" x="24" y="213.0" transform="rotate(-90 24 213.0)" text-anchor="middle" font-size="11">每次歧义额外犹豫（秒）</text>
</svg>
