<svg xmlns="http://www.w3.org/2000/svg" width="700" height="470" viewBox="0 0 700 470" role="img" aria-labelledby="title desc">
<title id="title">右转与行人不是两个独立变量</title>
<desc id="desc">总流量每小时一千五百辆时，正值表示四向停车更慢，负值表示信号灯更慢。</desc>
<style>
text{font-family:-apple-system,BlinkMacSystemFont,"Segoe UI","Noto Sans SC",sans-serif;fill:#28313b}
.muted{fill:#66717d} .axis{stroke:#66717d;stroke-width:1} .grid{stroke:#d8dde3;stroke-width:1}
.awsc{stroke:#c65d4b;fill:none} .signal{stroke:#347d67;fill:none}
.awsc-fill{fill:#c65d4b} .signal-fill{fill:#347d67} .surge{fill:#b58a35}
@media(prefers-color-scheme:dark){
  text{fill:#f2f0eb} .muted{fill:#c5c8cc} .axis{stroke:#c5c8cc} .grid{stroke:#555b63}
  .awsc{stroke:#ef8c78} .signal{stroke:#65b99d} .awsc-fill{fill:#ef8c78} .signal-fill{fill:#65b99d} .surge{fill:#d8b566}
}
</style>
<text x="350" y="24" text-anchor="middle" font-size="16" font-weight="600">右转与行人不是两个独立变量</text><text class="muted" x="133" y="94" text-anchor="end" font-size="10">400</text><rect x="145" y="58" width="87" height="59" rx="3" class="awsc-fill" opacity="0.35"/><text x="188.5" y="93" text-anchor="middle" font-size="11">停慢 361.4s</text><rect x="235" y="58" width="87" height="59" rx="3" class="awsc-fill" opacity="0.45"/><text x="278.5" y="93" text-anchor="middle" font-size="11">停慢 510.5s</text><rect x="325" y="58" width="87" height="59" rx="3" class="awsc-fill" opacity="0.52"/><text x="368.5" y="93" text-anchor="middle" font-size="11">停慢 631.7s</text><rect x="415" y="58" width="87" height="59" rx="3" class="awsc-fill" opacity="0.60"/><text x="458.5" y="93" text-anchor="middle" font-size="11">停慢 756.0s</text><rect x="505" y="58" width="87" height="59" rx="3" class="awsc-fill" opacity="0.67"/><text x="548.5" y="93" text-anchor="middle" font-size="11">停慢 858.2s</text><text class="muted" x="133" y="156" text-anchor="end" font-size="10">200</text><rect x="145" y="120" width="87" height="59" rx="3" class="awsc-fill" opacity="0.20"/><text x="188.5" y="155" text-anchor="middle" font-size="11">停慢 131.2s</text><rect x="235" y="120" width="87" height="59" rx="3" class="awsc-fill" opacity="0.28"/><text x="278.5" y="155" text-anchor="middle" font-size="11">停慢 243.2s</text><rect x="325" y="120" width="87" height="59" rx="3" class="awsc-fill" opacity="0.34"/><text x="368.5" y="155" text-anchor="middle" font-size="11">停慢 344.0s</text><rect x="415" y="120" width="87" height="59" rx="3" class="awsc-fill" opacity="0.41"/><text x="458.5" y="155" text-anchor="middle" font-size="11">停慢 455.7s</text><rect x="505" y="120" width="87" height="59" rx="3" class="awsc-fill" opacity="0.47"/><text x="548.5" y="155" text-anchor="middle" font-size="11">停慢 539.4s</text><text class="muted" x="133" y="218" text-anchor="end" font-size="10">100</text><rect x="145" y="182" width="87" height="59" rx="3" class="awsc-fill" opacity="0.14"/><text x="188.5" y="217" text-anchor="middle" font-size="11">停慢 27.8s</text><rect x="235" y="182" width="87" height="59" rx="3" class="awsc-fill" opacity="0.15"/><text x="278.5" y="217" text-anchor="middle" font-size="11">停慢 50.5s</text><rect x="325" y="182" width="87" height="59" rx="3" class="awsc-fill" opacity="0.18"/><text x="368.5" y="217" text-anchor="middle" font-size="11">停慢 99.1s</text><rect x="415" y="182" width="87" height="59" rx="3" class="awsc-fill" opacity="0.24"/><text x="458.5" y="217" text-anchor="middle" font-size="11">停慢 187.0s</text><rect x="505" y="182" width="87" height="59" rx="3" class="awsc-fill" opacity="0.28"/><text x="548.5" y="217" text-anchor="middle" font-size="11">停慢 244.5s</text><text class="muted" x="133" y="280" text-anchor="end" font-size="10">50</text><rect x="145" y="244" width="87" height="59" rx="3" class="awsc-fill" opacity="0.12"/><text x="188.5" y="279" text-anchor="middle" font-size="11">停慢 5.7s</text><rect x="235" y="244" width="87" height="59" rx="3" class="awsc-fill" opacity="0.13"/><text x="278.5" y="279" text-anchor="middle" font-size="11">停慢 10.0s</text><rect x="325" y="244" width="87" height="59" rx="3" class="awsc-fill" opacity="0.13"/><text x="368.5" y="279" text-anchor="middle" font-size="11">停慢 16.7s</text><rect x="415" y="244" width="87" height="59" rx="3" class="awsc-fill" opacity="0.14"/><text x="458.5" y="279" text-anchor="middle" font-size="11">停慢 37.3s</text><rect x="505" y="244" width="87" height="59" rx="3" class="awsc-fill" opacity="0.15"/><text x="548.5" y="279" text-anchor="middle" font-size="11">停慢 49.7s</text><text class="muted" x="133" y="342" text-anchor="end" font-size="10">0</text><rect x="145" y="306" width="87" height="59" rx="3" class="signal-fill" opacity="0.12"/><text x="188.5" y="341" text-anchor="middle" font-size="11">灯慢 2.0s</text><rect x="235" y="306" width="87" height="59" rx="3" class="signal-fill" opacity="0.12"/><text x="278.5" y="341" text-anchor="middle" font-size="11">灯慢 2.2s</text><rect x="325" y="306" width="87" height="59" rx="3" class="signal-fill" opacity="0.12"/><text x="368.5" y="341" text-anchor="middle" font-size="11">灯慢 2.1s</text><rect x="415" y="306" width="87" height="59" rx="3" class="signal-fill" opacity="0.12"/><text x="458.5" y="341" text-anchor="middle" font-size="11">灯慢 1.1s</text><rect x="505" y="306" width="87" height="59" rx="3" class="signal-fill" opacity="0.12"/><text x="548.5" y="341" text-anchor="middle" font-size="11">灯慢 0.8s</text><text class="muted" x="188.5" y="386" text-anchor="middle" font-size="10">0%</text><text class="muted" x="278.5" y="386" text-anchor="middle" font-size="10">10%</text><text class="muted" x="368.5" y="386" text-anchor="middle" font-size="10">20%</text><text class="muted" x="458.5" y="386" text-anchor="middle" font-size="10">30%</text><text class="muted" x="548.5" y="386" text-anchor="middle" font-size="10">40%</text><text class="muted" x="370.0" y="416" text-anchor="middle" font-size="11">右转比例</text><text class="muted" x="24" y="213.0" transform="rotate(-90 24 213.0)" text-anchor="middle" font-size="11">每条冲突横道行人流量（人/小时）</text>
</svg>
