<svg xmlns="http://www.w3.org/2000/svg" width="760" height="500" viewBox="0 0 760 500" role="img" aria-labelledby="title desc">
<title id="title">四向停车与信号灯的选择相图</title>
<desc id="desc">横轴为总流量，纵轴为主路流量占比。每个方格显示平均延误较低的控制方式以及延误差。</desc>
<style>
text{font-family:-apple-system,BlinkMacSystemFont,"Segoe UI","Noto Sans SC",sans-serif;fill:#28313b}
.muted{fill:#66717d} .axis{stroke:#66717d;stroke-width:1} .grid{stroke:#d8dde3;stroke-width:1}
.awsc{stroke:#c65d4b;fill:none} .signal{stroke:#347d67;fill:none}
.awsc-fill{fill:#c65d4b} .signal-fill{fill:#347d67} .surge{fill:#b58a35}
@media(prefers-color-scheme:dark){
  text{fill:#f2f0eb} .muted{fill:#c5c8cc} .axis{stroke:#c5c8cc} .grid{stroke:#555b63}
  .awsc{stroke:#ef8c78} .signal{stroke:#65b99d} .awsc-fill{fill:#ef8c78} .signal-fill{fill:#65b99d} .surge{fill:#d8b566}
}
</style>
<text x="380" y="24" text-anchor="middle" font-size="16" font-weight="600">哪种控制方式的平均延误更低？</text><text class="muted" x="62" y="77" text-anchor="end" font-size="11">90%</text><rect x="74" y="48" width="48" height="46" rx="3" class="awsc-fill" opacity="0.30"/><text x="98.0" y="70" text-anchor="middle" font-size="13" font-weight="600">停</text><text x="98.0" y="85" text-anchor="middle" font-size="9">3s</text><rect x="124" y="48" width="48" height="46" rx="3" class="awsc-fill" opacity="0.30"/><text x="148.0" y="70" text-anchor="middle" font-size="13" font-weight="600">停</text><text x="148.0" y="85" text-anchor="middle" font-size="9">3s</text><rect x="174" y="48" width="48" height="46" rx="3" class="awsc-fill" opacity="0.30"/><text x="198.0" y="70" text-anchor="middle" font-size="13" font-weight="600">停</text><text x="198.0" y="85" text-anchor="middle" font-size="9">3s</text><rect x="224" y="48" width="48" height="46" rx="3" class="awsc-fill" opacity="0.30"/><text x="248.0" y="70" text-anchor="middle" font-size="13" font-weight="600">停</text><text x="248.0" y="85" text-anchor="middle" font-size="9">3s</text><rect x="274" y="48" width="48" height="46" rx="3" class="awsc-fill" opacity="0.30"/><text x="298.0" y="70" text-anchor="middle" font-size="13" font-weight="600">停</text><text x="298.0" y="85" text-anchor="middle" font-size="9">3s</text><rect x="324" y="48" width="48" height="46" rx="3" class="awsc-fill" opacity="0.30"/><text x="348.0" y="70" text-anchor="middle" font-size="13" font-weight="600">停</text><text x="348.0" y="85" text-anchor="middle" font-size="9">3s</text><rect x="374" y="48" width="48" height="46" rx="3" class="awsc-fill" opacity="0.30"/><text x="398.0" y="70" text-anchor="middle" font-size="13" font-weight="600">停</text><text x="398.0" y="85" text-anchor="middle" font-size="9">1s</text><rect x="424" y="48" width="48" height="46" rx="3" class="signal-fill" opacity="0.30"/><text x="448.0" y="70" text-anchor="middle" font-size="13" font-weight="600">灯</text><text x="448.0" y="85" text-anchor="middle" font-size="9">3s</text><rect x="474" y="48" width="48" height="46" rx="3" class="signal-fill" opacity="0.30"/><text x="498.0" y="70" text-anchor="middle" font-size="13" font-weight="600">灯</text><text x="498.0" y="85" text-anchor="middle" font-size="9">124s</text><rect x="524" y="48" width="48" height="46" rx="3" class="signal-fill" opacity="0.30"/><text x="548.0" y="70" text-anchor="middle" font-size="13" font-weight="600">灯</text><text x="548.0" y="85" text-anchor="middle" font-size="9">368s</text><rect x="574" y="48" width="48" height="46" rx="3" class="signal-fill" opacity="0.30"/><text x="598.0" y="70" text-anchor="middle" font-size="13" font-weight="600">灯</text><text x="598.0" y="85" text-anchor="middle" font-size="9">580s</text><rect x="624" y="48" width="48" height="46" rx="3" class="signal-fill" opacity="0.30"/><text x="648.0" y="70" text-anchor="middle" font-size="13" font-weight="600">灯</text><text x="648.0" y="85" text-anchor="middle" font-size="9">741s</text><rect x="674" y="48" width="48" height="46" rx="3" class="signal-fill" opacity="0.30"/><text x="698.0" y="70" text-anchor="middle" font-size="13" font-weight="600">灯</text><text x="698.0" y="85" text-anchor="middle" font-size="9">884s</text><text class="muted" x="62" y="125" text-anchor="end" font-size="11">80%</text><rect x="74" y="96" width="48" height="46" rx="3" class="awsc-fill" opacity="0.30"/><text x="98.0" y="118" text-anchor="middle" font-size="13" font-weight="600">停</text><text x="98.0" y="133" text-anchor="middle" font-size="9">5s</text><rect x="124" y="96" width="48" height="46" rx="3" class="awsc-fill" opacity="0.30"/><text x="148.0" y="118" text-anchor="middle" font-size="13" font-weight="600">停</text><text x="148.0" y="133" text-anchor="middle" font-size="9">5s</text><rect x="174" y="96" width="48" height="46" rx="3" class="awsc-fill" opacity="0.30"/><text x="198.0" y="118" text-anchor="middle" font-size="13" font-weight="600">停</text><text x="198.0" y="133" text-anchor="middle" font-size="9">5s</text><rect x="224" y="96" width="48" height="46" rx="3" class="awsc-fill" opacity="0.30"/><text x="248.0" y="118" text-anchor="middle" font-size="13" font-weight="600">停</text><text x="248.0" y="133" text-anchor="middle" font-size="9">5s</text><rect x="274" y="96" width="48" height="46" rx="3" class="awsc-fill" opacity="0.30"/><text x="298.0" y="118" text-anchor="middle" font-size="13" font-weight="600">停</text><text x="298.0" y="133" text-anchor="middle" font-size="9">5s</text><rect x="324" y="96" width="48" height="46" rx="3" class="awsc-fill" opacity="0.30"/><text x="348.0" y="118" text-anchor="middle" font-size="13" font-weight="600">停</text><text x="348.0" y="133" text-anchor="middle" font-size="9">4s</text><rect x="374" y="96" width="48" height="46" rx="3" class="awsc-fill" opacity="0.30"/><text x="398.0" y="118" text-anchor="middle" font-size="13" font-weight="600">停</text><text x="398.0" y="133" text-anchor="middle" font-size="9">3s</text><rect x="424" y="96" width="48" height="46" rx="3" class="signal-fill" opacity="0.30"/><text x="448.0" y="118" text-anchor="middle" font-size="13" font-weight="600">灯</text><text x="448.0" y="133" text-anchor="middle" font-size="9">8s</text><rect x="474" y="96" width="48" height="46" rx="3" class="signal-fill" opacity="0.30"/><text x="498.0" y="118" text-anchor="middle" font-size="13" font-weight="600">灯</text><text x="498.0" y="133" text-anchor="middle" font-size="9">144s</text><rect x="524" y="96" width="48" height="46" rx="3" class="signal-fill" opacity="0.30"/><text x="548.0" y="118" text-anchor="middle" font-size="13" font-weight="600">灯</text><text x="548.0" y="133" text-anchor="middle" font-size="9">376s</text><rect x="574" y="96" width="48" height="46" rx="3" class="signal-fill" opacity="0.30"/><text x="598.0" y="118" text-anchor="middle" font-size="13" font-weight="600">灯</text><text x="598.0" y="133" text-anchor="middle" font-size="9">571s</text><rect x="624" y="96" width="48" height="46" rx="3" class="signal-fill" opacity="0.30"/><text x="648.0" y="118" text-anchor="middle" font-size="13" font-weight="600">灯</text><text x="648.0" y="133" text-anchor="middle" font-size="9">745s</text><rect x="674" y="96" width="48" height="46" rx="3" class="signal-fill" opacity="0.30"/><text x="698.0" y="118" text-anchor="middle" font-size="13" font-weight="600">灯</text><text x="698.0" y="133" text-anchor="middle" font-size="9">883s</text><text class="muted" x="62" y="173" text-anchor="end" font-size="11">70%</text><rect x="74" y="144" width="48" height="46" rx="3" class="awsc-fill" opacity="0.30"/><text x="98.0" y="166" text-anchor="middle" font-size="13" font-weight="600">停</text><text x="98.0" y="181" text-anchor="middle" font-size="9">8s</text><rect x="124" y="144" width="48" height="46" rx="3" class="awsc-fill" opacity="0.30"/><text x="148.0" y="166" text-anchor="middle" font-size="13" font-weight="600">停</text><text x="148.0" y="181" text-anchor="middle" font-size="9">8s</text><rect x="174" y="144" width="48" height="46" rx="3" class="awsc-fill" opacity="0.30"/><text x="198.0" y="166" text-anchor="middle" font-size="13" font-weight="600">停</text><text x="198.0" y="181" text-anchor="middle" font-size="9">8s</text><rect x="224" y="144" width="48" height="46" rx="3" class="awsc-fill" opacity="0.30"/><text x="248.0" y="166" text-anchor="middle" font-size="13" font-weight="600">停</text><text x="248.0" y="181" text-anchor="middle" font-size="9">8s</text><rect x="274" y="144" width="48" height="46" rx="3" class="awsc-fill" opacity="0.30"/><text x="298.0" y="166" text-anchor="middle" font-size="13" font-weight="600">停</text><text x="298.0" y="181" text-anchor="middle" font-size="9">7s</text><rect x="324" y="144" width="48" height="46" rx="3" class="awsc-fill" opacity="0.30"/><text x="348.0" y="166" text-anchor="middle" font-size="13" font-weight="600">停</text><text x="348.0" y="181" text-anchor="middle" font-size="9">7s</text><rect x="374" y="144" width="48" height="46" rx="3" class="awsc-fill" opacity="0.30"/><text x="398.0" y="166" text-anchor="middle" font-size="13" font-weight="600">停</text><text x="398.0" y="181" text-anchor="middle" font-size="9">5s</text><rect x="424" y="144" width="48" height="46" rx="3" class="signal-fill" opacity="0.30"/><text x="448.0" y="166" text-anchor="middle" font-size="13" font-weight="600">灯</text><text x="448.0" y="181" text-anchor="middle" font-size="9">7s</text><rect x="474" y="144" width="48" height="46" rx="3" class="signal-fill" opacity="0.30"/><text x="498.0" y="166" text-anchor="middle" font-size="13" font-weight="600">灯</text><text x="498.0" y="181" text-anchor="middle" font-size="9">142s</text><rect x="524" y="144" width="48" height="46" rx="3" class="signal-fill" opacity="0.30"/><text x="548.0" y="166" text-anchor="middle" font-size="13" font-weight="600">灯</text><text x="548.0" y="181" text-anchor="middle" font-size="9">370s</text><rect x="574" y="144" width="48" height="46" rx="3" class="signal-fill" opacity="0.30"/><text x="598.0" y="166" text-anchor="middle" font-size="13" font-weight="600">灯</text><text x="598.0" y="181" text-anchor="middle" font-size="9">574s</text><rect x="624" y="144" width="48" height="46" rx="3" class="signal-fill" opacity="0.30"/><text x="648.0" y="166" text-anchor="middle" font-size="13" font-weight="600">灯</text><text x="648.0" y="181" text-anchor="middle" font-size="9">747s</text><rect x="674" y="144" width="48" height="46" rx="3" class="signal-fill" opacity="0.30"/><text x="698.0" y="166" text-anchor="middle" font-size="13" font-weight="600">灯</text><text x="698.0" y="181" text-anchor="middle" font-size="9">882s</text><text class="muted" x="62" y="221" text-anchor="end" font-size="11">60%</text><rect x="74" y="192" width="48" height="46" rx="3" class="awsc-fill" opacity="0.30"/><text x="98.0" y="214" text-anchor="middle" font-size="13" font-weight="600">停</text><text x="98.0" y="229" text-anchor="middle" font-size="9">9s</text><rect x="124" y="192" width="48" height="46" rx="3" class="awsc-fill" opacity="0.30"/><text x="148.0" y="214" text-anchor="middle" font-size="13" font-weight="600">停</text><text x="148.0" y="229" text-anchor="middle" font-size="9">9s</text><rect x="174" y="192" width="48" height="46" rx="3" class="awsc-fill" opacity="0.30"/><text x="198.0" y="214" text-anchor="middle" font-size="13" font-weight="600">停</text><text x="198.0" y="229" text-anchor="middle" font-size="9">9s</text><rect x="224" y="192" width="48" height="46" rx="3" class="awsc-fill" opacity="0.30"/><text x="248.0" y="214" text-anchor="middle" font-size="13" font-weight="600">停</text><text x="248.0" y="229" text-anchor="middle" font-size="9">9s</text><rect x="274" y="192" width="48" height="46" rx="3" class="awsc-fill" opacity="0.30"/><text x="298.0" y="214" text-anchor="middle" font-size="13" font-weight="600">停</text><text x="298.0" y="229" text-anchor="middle" font-size="9">9s</text><rect x="324" y="192" width="48" height="46" rx="3" class="awsc-fill" opacity="0.30"/><text x="348.0" y="214" text-anchor="middle" font-size="13" font-weight="600">停</text><text x="348.0" y="229" text-anchor="middle" font-size="9">8s</text><rect x="374" y="192" width="48" height="46" rx="3" class="awsc-fill" opacity="0.30"/><text x="398.0" y="214" text-anchor="middle" font-size="13" font-weight="600">停</text><text x="398.0" y="229" text-anchor="middle" font-size="9">6s</text><rect x="424" y="192" width="48" height="46" rx="3" class="signal-fill" opacity="0.30"/><text x="448.0" y="214" text-anchor="middle" font-size="13" font-weight="600">灯</text><text x="448.0" y="229" text-anchor="middle" font-size="9">7s</text><rect x="474" y="192" width="48" height="46" rx="3" class="signal-fill" opacity="0.30"/><text x="498.0" y="214" text-anchor="middle" font-size="13" font-weight="600">灯</text><text x="498.0" y="229" text-anchor="middle" font-size="9">141s</text><rect x="524" y="192" width="48" height="46" rx="3" class="signal-fill" opacity="0.30"/><text x="548.0" y="214" text-anchor="middle" font-size="13" font-weight="600">灯</text><text x="548.0" y="229" text-anchor="middle" font-size="9">360s</text><rect x="574" y="192" width="48" height="46" rx="3" class="signal-fill" opacity="0.30"/><text x="598.0" y="214" text-anchor="middle" font-size="13" font-weight="600">灯</text><text x="598.0" y="229" text-anchor="middle" font-size="9">586s</text><rect x="624" y="192" width="48" height="46" rx="3" class="signal-fill" opacity="0.30"/><text x="648.0" y="214" text-anchor="middle" font-size="13" font-weight="600">灯</text><text x="648.0" y="229" text-anchor="middle" font-size="9">741s</text><rect x="674" y="192" width="48" height="46" rx="3" class="signal-fill" opacity="0.30"/><text x="698.0" y="214" text-anchor="middle" font-size="13" font-weight="600">灯</text><text x="698.0" y="229" text-anchor="middle" font-size="9">884s</text><text class="muted" x="62" y="269" text-anchor="end" font-size="11">50%</text><rect x="74" y="240" width="48" height="46" rx="3" class="awsc-fill" opacity="0.30"/><text x="98.0" y="262" text-anchor="middle" font-size="13" font-weight="600">停</text><text x="98.0" y="277" text-anchor="middle" font-size="9">9s</text><rect x="124" y="240" width="48" height="46" rx="3" class="awsc-fill" opacity="0.30"/><text x="148.0" y="262" text-anchor="middle" font-size="13" font-weight="600">停</text><text x="148.0" y="277" text-anchor="middle" font-size="9">10s</text><rect x="174" y="240" width="48" height="46" rx="3" class="awsc-fill" opacity="0.30"/><text x="198.0" y="262" text-anchor="middle" font-size="13" font-weight="600">停</text><text x="198.0" y="277" text-anchor="middle" font-size="9">10s</text><rect x="224" y="240" width="48" height="46" rx="3" class="awsc-fill" opacity="0.30"/><text x="248.0" y="262" text-anchor="middle" font-size="13" font-weight="600">停</text><text x="248.0" y="277" text-anchor="middle" font-size="9">10s</text><rect x="274" y="240" width="48" height="46" rx="3" class="awsc-fill" opacity="0.30"/><text x="298.0" y="262" text-anchor="middle" font-size="13" font-weight="600">停</text><text x="298.0" y="277" text-anchor="middle" font-size="9">9s</text><rect x="324" y="240" width="48" height="46" rx="3" class="awsc-fill" opacity="0.30"/><text x="348.0" y="262" text-anchor="middle" font-size="13" font-weight="600">停</text><text x="348.0" y="277" text-anchor="middle" font-size="9">9s</text><rect x="374" y="240" width="48" height="46" rx="3" class="awsc-fill" opacity="0.30"/><text x="398.0" y="262" text-anchor="middle" font-size="13" font-weight="600">停</text><text x="398.0" y="277" text-anchor="middle" font-size="9">6s</text><rect x="424" y="240" width="48" height="46" rx="3" class="signal-fill" opacity="0.30"/><text x="448.0" y="262" text-anchor="middle" font-size="13" font-weight="600">灯</text><text x="448.0" y="277" text-anchor="middle" font-size="9">6s</text><rect x="474" y="240" width="48" height="46" rx="3" class="signal-fill" opacity="0.30"/><text x="498.0" y="262" text-anchor="middle" font-size="13" font-weight="600">灯</text><text x="498.0" y="277" text-anchor="middle" font-size="9">137s</text><rect x="524" y="240" width="48" height="46" rx="3" class="signal-fill" opacity="0.30"/><text x="548.0" y="262" text-anchor="middle" font-size="13" font-weight="600">灯</text><text x="548.0" y="277" text-anchor="middle" font-size="9">375s</text><rect x="574" y="240" width="48" height="46" rx="3" class="signal-fill" opacity="0.30"/><text x="598.0" y="262" text-anchor="middle" font-size="13" font-weight="600">灯</text><text x="598.0" y="277" text-anchor="middle" font-size="9">565s</text><rect x="624" y="240" width="48" height="46" rx="3" class="signal-fill" opacity="0.30"/><text x="648.0" y="262" text-anchor="middle" font-size="13" font-weight="600">灯</text><text x="648.0" y="277" text-anchor="middle" font-size="9">742s</text><rect x="674" y="240" width="48" height="46" rx="3" class="signal-fill" opacity="0.30"/><text x="698.0" y="262" text-anchor="middle" font-size="13" font-weight="600">灯</text><text x="698.0" y="277" text-anchor="middle" font-size="9">885s</text><text class="muted" x="98.0" y="306" text-anchor="middle" font-size="10">200</text><text class="muted" x="148.0" y="306" text-anchor="middle" font-size="10">400</text><text class="muted" x="198.0" y="306" text-anchor="middle" font-size="10">600</text><text class="muted" x="248.0" y="306" text-anchor="middle" font-size="10">800</text><text class="muted" x="298.0" y="306" text-anchor="middle" font-size="10">1000</text><text class="muted" x="348.0" y="306" text-anchor="middle" font-size="10">1200</text><text class="muted" x="398.0" y="306" text-anchor="middle" font-size="10">1400</text><text class="muted" x="448.0" y="306" text-anchor="middle" font-size="10">1600</text><text class="muted" x="498.0" y="306" text-anchor="middle" font-size="10">1800</text><text class="muted" x="548.0" y="306" text-anchor="middle" font-size="10">2000</text><text class="muted" x="598.0" y="306" text-anchor="middle" font-size="10">2200</text><text class="muted" x="648.0" y="306" text-anchor="middle" font-size="10">2400</text><text class="muted" x="698.0" y="306" text-anchor="middle" font-size="10">2600</text><text class="muted" x="399.0" y="336" text-anchor="middle" font-size="12">总进入流量（辆/小时）</text><text class="muted" x="25" y="168.0" transform="rotate(-90 25 168.0)" text-anchor="middle" font-size="12">主路流量占比</text><rect x="205" y="380" width="15" height="15" rx="2" class="awsc-fill" opacity="0.65"/><text x="228" y="392" font-size="11">停：四向停车胜</text><rect x="385" y="380" width="15" height="15" rx="2" class="signal-fill" opacity="0.65"/><text x="408" y="392" font-size="11">灯：信号灯胜</text><text class="muted" x="380" y="425" text-anchor="middle" font-size="11">格内秒数 = 两者平均延误之差的绝对值</text><text class="muted" x="380" y="451" text-anchor="middle" font-size="10">单车道、Poisson 到达、左/直/右 = 10%/80%/10%，每格 40 次重复</text>
</svg>
