<svg xmlns="http://www.w3.org/2000/svg" width="760" height="520" viewBox="0 0 760 520" role="img" aria-labelledby="title desc">
<title id="title">四向停车与信号灯的平均延误曲线</title>
<desc id="desc">平衡和偏流两种需求结构下，平均控制延误随总进入流量变化，并显示百分之九十五蒙特卡洛置信区间。曲线和置信区间在纵轴三百秒的上边界处截断，超出范围的数据不绘制。</desc>
<style>
text{font-family:-apple-system,BlinkMacSystemFont,"Segoe UI","Noto Sans SC",sans-serif;fill:#28313b}
.muted{fill:#66717d} .axis{stroke:#66717d;stroke-width:1} .grid{stroke:#d8dde3;stroke-width:1}
.awsc{stroke:#c65d4b;fill:none} .signal{stroke:#347d67;fill:none}
.awsc-fill{fill:#c65d4b} .signal-fill{fill:#347d67} .surge{fill:#b58a35}
@media(prefers-color-scheme:dark){
  text{fill:#f2f0eb} .muted{fill:#c5c8cc} .axis{stroke:#c5c8cc} .grid{stroke:#555b63}
  .awsc{stroke:#ef8c78} .signal{stroke:#65b99d} .awsc-fill{fill:#ef8c78} .signal-fill{fill:#65b99d} .surge{fill:#d8b566}
}
</style>
<text x="380.0" y="24" text-anchor="middle" font-size="16" font-weight="600">平均延误随总流量变化</text><text x="197.5" y="45" text-anchor="middle" font-size="13">四向均衡：主路占 50%</text><line class="grid" x1="55" y1="415.0" x2="340" y2="415.0"/><text class="muted" x="47" y="419.0" text-anchor="end" font-size="11">0</text><line class="grid" x1="55" y1="325.0" x2="340" y2="325.0"/><text class="muted" x="47" y="329.0" text-anchor="end" font-size="11">75</text><line class="grid" x1="55" y1="235.0" x2="340" y2="235.0"/><text class="muted" x="47" y="239.0" text-anchor="end" font-size="11">150</text><line class="grid" x1="55" y1="145.0" x2="340" y2="145.0"/><text class="muted" x="47" y="149.0" text-anchor="end" font-size="11">225</text><line class="grid" x1="55" y1="55.0" x2="340" y2="55.0"/><text class="muted" x="47" y="59.0" text-anchor="end" font-size="11">300</text><line class="axis" x1="55" y1="55" x2="55" y2="415"/><line class="axis" x1="55" y1="415" x2="340" y2="415"/><path d="M55.0,410.3 L78.8,410.0 L102.5,409.6 L126.2,409.0 L150.0,408.0 L173.8,406.3 L197.5,402.7 L221.2,384.4 L245.0,208.6 L257.6,55.0 L261.3,55.0 L245.0,251.3 L221.2,391.6 L197.5,403.4 L173.8,406.7 L150.0,408.1 L126.2,409.1 L102.5,409.7 L78.8,410.1 L55.0,410.4 Z" class="awsc-fill" opacity="0.12"/><path d="M55.0,410.3 L78.8,410.1 L102.5,409.6 L126.2,409.1 L150.0,408.1 L173.8,406.5 L197.5,403.1 L221.2,388.0 L245.0,230.0 L259.5,55.0" class="awsc" stroke-width="2.5"/><path d="M55.0,398.8 L78.8,398.2 L102.5,397.8 L126.2,397.4 L150.0,396.6 L173.8,396.0 L197.5,395.3 L221.2,394.5 L245.0,393.7 L268.8,392.5 L292.5,390.4 L316.2,387.5 L340.0,381.8 L340.0,383.3 L316.2,388.3 L292.5,390.9 L268.8,393.0 L245.0,394.0 L221.2,394.8 L197.5,395.7 L173.8,396.4 L150.0,397.0 L126.2,397.8 L102.5,398.2 L78.8,398.6 L55.0,399.5 Z" class="signal-fill" opacity="0.12"/><path d="M55.0,399.2 L78.8,398.4 L102.5,398.0 L126.2,397.6 L150.0,396.8 L173.8,396.2 L197.5,395.5 L221.2,394.7 L245.0,393.9 L268.8,392.8 L292.5,390.7 L316.2,387.9 L340.0,382.5" class="signal" stroke-width="2.5"/><text class="muted" x="55.0" y="433" text-anchor="middle" font-size="10">200</text><text class="muted" x="126.2" y="433" text-anchor="middle" font-size="10">800</text><text class="muted" x="197.5" y="433" text-anchor="middle" font-size="10">1400</text><text class="muted" x="268.8" y="433" text-anchor="middle" font-size="10">2000</text><text class="muted" x="340.0" y="433" text-anchor="middle" font-size="10">2600</text><text x="542.5" y="45" text-anchor="middle" font-size="13">明显偏流：主路占 80%</text><line class="grid" x1="400" y1="415.0" x2="685" y2="415.0"/><line class="grid" x1="400" y1="325.0" x2="685" y2="325.0"/><line class="grid" x1="400" y1="235.0" x2="685" y2="235.0"/><line class="grid" x1="400" y1="145.0" x2="685" y2="145.0"/><line class="grid" x1="400" y1="55.0" x2="685" y2="55.0"/><line class="axis" x1="400" y1="55" x2="400" y2="415"/><line class="axis" x1="400" y1="415" x2="685" y2="415"/><path d="M400.0,410.4 L423.8,410.1 L447.5,409.8 L471.2,409.2 L495.0,408.5 L518.8,407.0 L542.5,404.4 L566.2,388.4 L590.0,208.0 L603.0,55.0 L606.1,55.0 L590.0,244.6 L566.2,394.0 L542.5,405.0 L518.8,407.3 L495.0,408.6 L471.2,409.4 L447.5,409.8 L423.8,410.2 L400.0,410.4 Z" class="awsc-fill" opacity="0.12"/><path d="M400.0,410.4 L423.8,410.1 L447.5,409.8 L471.2,409.3 L495.0,408.5 L518.8,407.2 L542.5,404.7 L566.2,391.2 L590.0,226.3 L604.5,55.0" class="awsc" stroke-width="2.5"/><path d="M400.0,403.8 L423.8,403.3 L447.5,403.0 L471.2,402.6 L495.0,402.3 L518.8,401.7 L542.5,401.2 L566.2,400.3 L590.0,398.9 L613.8,398.0 L637.5,395.8 L661.2,392.8 L685.0,386.5 L685.0,389.4 L661.2,393.8 L637.5,396.6 L613.8,398.5 L590.0,399.3 L566.2,400.6 L542.5,401.6 L518.8,402.0 L495.0,402.6 L471.2,403.0 L447.5,403.5 L423.8,403.8 L400.0,404.4 Z" class="signal-fill" opacity="0.12"/><path d="M400.0,404.1 L423.8,403.6 L447.5,403.2 L471.2,402.8 L495.0,402.4 L518.8,401.8 L542.5,401.4 L566.2,400.5 L590.0,399.1 L613.8,398.2 L637.5,396.2 L661.2,393.3 L685.0,388.0" class="signal" stroke-width="2.5"/><text class="muted" x="400.0" y="433" text-anchor="middle" font-size="10">200</text><text class="muted" x="471.2" y="433" text-anchor="middle" font-size="10">800</text><text class="muted" x="542.5" y="433" text-anchor="middle" font-size="10">1400</text><text class="muted" x="613.8" y="433" text-anchor="middle" font-size="10">2000</text><text class="muted" x="685.0" y="433" text-anchor="middle" font-size="10">2600</text><text class="muted" x="17" y="235" transform="rotate(-90 17 235)" text-anchor="middle" font-size="12">平均控制延误（秒/辆）</text><text class="muted" x="355" y="462" text-anchor="middle" font-size="12">总进入流量（辆/小时）</text><line class="awsc" x1="245" y1="493" x2="275" y2="493" stroke-width="3"/><text x="282" y="497" font-size="12">四向停车</text><line class="signal" x1="395" y1="493" x2="425" y2="493" stroke-width="3"/><text x="432" y="497" font-size="12">定时信号</text><text class="muted" x="660" y="497" text-anchor="end" font-size="10">阴影：95% Monte Carlo CI</text>
</svg>
