<svg xmlns="http://www.w3.org/2000/svg" width="760" height="410" viewBox="0 0 760 410" role="img" aria-labelledby="title desc">
<title id="title">高峰冲击下的排队动态</title>
<desc id="desc">基础流量为每小时四百辆，第25到45分钟上升至每小时两千辆。曲线显示四十次模拟的平均排队车辆数。</desc>
<style>
text{font-family:-apple-system,BlinkMacSystemFont,"Segoe UI","Noto Sans SC",sans-serif;fill:#28313b}
.muted{fill:#66717d} .axis{stroke:#66717d;stroke-width:1} .grid{stroke:#d8dde3;stroke-width:1}
.awsc{stroke:#c65d4b;fill:none} .signal{stroke:#347d67;fill:none}
.awsc-fill{fill:#c65d4b} .signal-fill{fill:#347d67} .surge{fill:#b58a35}
@media(prefers-color-scheme:dark){
  text{fill:#f2f0eb} .muted{fill:#c5c8cc} .axis{stroke:#c5c8cc} .grid{stroke:#555b63}
  .awsc{stroke:#ef8c78} .signal{stroke:#65b99d} .awsc-fill{fill:#ef8c78} .signal-fill{fill:#65b99d} .surge{fill:#d8b566}
}
</style>
<text x="380" y="22" text-anchor="middle" font-size="16" font-weight="600">20 分钟集中放学后，队伍多久消得掉？</text><line class="grid" x1="65" y1="330.0" x2="705" y2="330.0"/><text class="muted" x="57" y="334.0" text-anchor="end" font-size="10">0</text><line class="grid" x1="65" y1="305.9" x2="705" y2="305.9"/><text class="muted" x="57" y="309.9" text-anchor="end" font-size="10">10</text><line class="grid" x1="65" y1="281.9" x2="705" y2="281.9"/><text class="muted" x="57" y="285.9" text-anchor="end" font-size="10">20</text><line class="grid" x1="65" y1="257.8" x2="705" y2="257.8"/><text class="muted" x="57" y="261.8" text-anchor="end" font-size="10">30</text><line class="grid" x1="65" y1="233.7" x2="705" y2="233.7"/><text class="muted" x="57" y="237.7" text-anchor="end" font-size="10">40</text><line class="grid" x1="65" y1="209.7" x2="705" y2="209.7"/><text class="muted" x="57" y="213.7" text-anchor="end" font-size="10">50</text><line class="grid" x1="65" y1="185.6" x2="705" y2="185.6"/><text class="muted" x="57" y="189.6" text-anchor="end" font-size="10">60</text><line class="grid" x1="65" y1="161.6" x2="705" y2="161.6"/><text class="muted" x="57" y="165.6" text-anchor="end" font-size="10">70</text><line class="grid" x1="65" y1="137.5" x2="705" y2="137.5"/><text class="muted" x="57" y="141.5" text-anchor="end" font-size="10">80</text><line class="grid" x1="65" y1="113.4" x2="705" y2="113.4"/><text class="muted" x="57" y="117.4" text-anchor="end" font-size="10">90</text><line class="grid" x1="65" y1="89.4" x2="705" y2="89.4"/><text class="muted" x="57" y="93.4" text-anchor="end" font-size="10">100</text><line class="grid" x1="65" y1="65.3" x2="705" y2="65.3"/><text class="muted" x="57" y="69.3" text-anchor="end" font-size="10">110</text><line class="grid" x1="65" y1="41.2" x2="705" y2="41.2"/><text class="muted" x="57" y="45.2" text-anchor="end" font-size="10">120</text><rect x="278.3" y="45" width="170.7" height="285" class="surge" opacity="0.10"/><text x="363.7" y="61" text-anchor="middle" font-size="10">集中放学：2,000 辆/小时</text><path d="M65.0,330.0 L73.5,329.3 L82.1,328.8 L90.6,328.6 L99.1,328.6 L107.7,329.0 L116.2,329.0 L124.7,328.1 L133.3,328.6 L141.8,328.7 L150.3,329.0 L158.9,329.1 L167.4,329.1 L175.9,329.0 L184.5,328.9 L193.0,329.0 L201.5,329.1 L210.1,329.0 L218.6,329.3 L227.1,328.7 L235.7,328.4 L244.2,328.3 L252.7,328.7 L261.3,328.9 L269.8,329.2 L278.3,328.9 L286.9,306.5 L295.4,294.6 L303.9,282.1 L312.5,268.2 L321.0,257.9 L329.5,244.0 L338.1,234.0 L346.6,222.9 L355.1,210.5 L363.7,195.3 L372.2,181.3 L380.7,170.2 L389.3,158.6 L397.8,150.2 L406.3,134.2 L414.9,125.0 L423.4,108.9 L431.9,97.1 L440.5,84.4 L449.0,75.5 L457.5,127.8 L466.1,180.9 L474.6,231.0 L483.1,276.4 L491.7,308.4 L500.2,323.3 L508.7,327.6 L517.3,329.3 L525.8,329.2 L534.3,328.4 L542.9,328.7 L551.4,328.7 L559.9,329.1 L568.5,329.0 L577.0,329.2 L585.5,328.8 L594.1,328.9 L602.6,329.1 L611.1,329.1 L619.7,328.9 L628.2,328.4 L636.7,329.0 L645.3,329.1 L653.8,328.7 L662.3,329.4 L670.9,329.2 L679.4,328.6 L687.9,328.7 L696.5,328.7 L705.0,328.7" class="awsc" stroke-width="2.7"/><path d="M65.0,330.0 L73.5,325.9 L82.1,326.8 L90.6,327.5 L99.1,324.6 L107.7,327.0 L116.2,328.4 L124.7,323.3 L133.3,325.1 L141.8,327.3 L150.3,327.4 L158.9,325.0 L167.4,327.5 L175.9,328.4 L184.5,323.6 L193.0,325.8 L201.5,326.9 L210.1,328.0 L218.6,326.0 L227.1,326.9 L235.7,327.8 L244.2,324.0 L252.7,325.4 L261.3,327.5 L269.8,328.4 L278.3,325.5 L286.9,308.6 L295.4,310.0 L303.9,298.2 L312.5,306.2 L321.0,307.7 L329.5,297.3 L338.1,304.6 L346.6,309.8 L355.1,307.6 L363.7,298.2 L372.2,306.4 L380.7,307.7 L389.3,300.5 L397.8,305.6 L406.3,309.2 L414.9,307.7 L423.4,297.9 L431.9,306.4 L440.5,307.6 L449.0,301.6 L457.5,325.4 L466.1,326.5 L474.6,327.8 L483.1,324.9 L491.7,326.3 L500.2,326.9 L508.7,327.8 L517.3,325.7 L525.8,327.7 L534.3,327.1 L542.9,322.8 L551.4,325.7 L559.9,327.1 L568.5,327.7 L577.0,324.6 L585.5,327.1 L594.1,328.2 L602.6,324.8 L611.1,326.1 L619.7,326.7 L628.2,327.2 L636.7,326.0 L645.3,326.9 L653.8,327.8 L662.3,324.1 L670.9,325.9 L679.4,327.2 L687.9,327.8 L696.5,324.8 L705.0,326.9" class="signal" stroke-width="2.7"/><line class="axis" x1="65" y1="45" x2="65" y2="330"/><line class="axis" x1="65" y1="330" x2="705" y2="330"/><text class="muted" x="18" y="190" transform="rotate(-90 18 190)" text-anchor="middle" font-size="12">路口前排队车辆</text><text class="muted" x="385" y="370" text-anchor="middle" font-size="12">模拟时间（分钟）</text><line class="awsc" x1="255" y1="394" x2="285" y2="394" stroke-width="3"/><text x="292" y="398" font-size="11">四向停车</text><line class="signal" x1="405" y1="394" x2="435" y2="394" stroke-width="3"/><text x="442" y="398" font-size="11">定时信号</text><text class="muted" x="65.0" y="348" text-anchor="middle" font-size="10">0</text><text class="muted" x="193.0" y="348" text-anchor="middle" font-size="10">15</text><text class="muted" x="278.3" y="348" text-anchor="middle" font-size="10">25</text><text class="muted" x="363.7" y="348" text-anchor="middle" font-size="10">35</text><text class="muted" x="449.0" y="348" text-anchor="middle" font-size="10">45</text><text class="muted" x="577.0" y="348" text-anchor="middle" font-size="10">60</text><text class="muted" x="705.0" y="348" text-anchor="middle" font-size="10">75</text>
</svg>
