<svg xmlns="http://www.w3.org/2000/svg" aria-hidden="true">
  <defs>
    <symbol id="i-moon" viewBox="0 0 24 24"><path d="M20 15.2A8.2 8.2 0 0 1 8.8 4a8.3 8.3 0 1 0 11.2 11.2Z"/></symbol>
    <symbol id="i-sun" viewBox="0 0 24 24"><circle cx="12" cy="12" r="3.5"/><path d="M12 2.4v2.1M12 19.5v2.1M2.4 12h2.1M19.5 12h2.1M5.2 5.2l1.5 1.5M17.3 17.3l1.5 1.5M18.8 5.2l-1.5 1.5M6.7 17.3l-1.5 1.5"/></symbol>
    <symbol id="i-tree" viewBox="0 0 24 24"><path d="M12 21v-6M7.2 17h9.6L14.5 13h2.7L14 8.8h2.2L12 3 7.8 8.8H10L6.8 13h2.7Z"/></symbol>
    <symbol id="i-leaf" viewBox="0 0 24 24"><path d="M5 18.7C4.6 10 10.2 4.4 20 4c-.4 9.8-6 15.4-14.7 15M6 18c3.1-3.4 6.2-6.2 10.7-9"/></symbol>
    <symbol id="i-pencil" viewBox="0 0 24 24"><path d="m4 16.8-.8 4 4-.8L18.6 8.6 15.4 5.4Z"/><path d="m13.8 7 3.2 3.2M14.9 5.9l1.8-1.8a1.4 1.4 0 0 1 2 0l1.2 1.2a1.4 1.4 0 0 1 0 2l-1.8 1.8"/></symbol>
    <symbol id="i-mic" viewBox="0 0 24 24"><rect x="8.2" y="3" width="7.6" height="12" rx="3.8"/><path d="M5.5 11.7a6.5 6.5 0 0 0 13 0M12 18.2V22M8.8 22h6.4"/></symbol>
    <symbol id="i-wave" viewBox="0 0 24 24"><path d="M4 10v4M8 7v10M12 4v16M16 7v10M20 10v4"/></symbol>
    <symbol id="i-play" viewBox="0 0 24 24"><path d="m8 5 11 7-11 7Z"/></symbol>
    <symbol id="i-download" viewBox="0 0 24 24"><path d="M12 3v12M7.5 10.5 12 15l4.5-4.5M4 20h16"/></symbol>
    <symbol id="i-book" viewBox="0 0 24 24"><path d="M4 4.5h6a2 2 0 0 1 2 2V20a3 3 0 0 0-3-3H4ZM20 4.5h-6a2 2 0 0 0-2 2V20a3 3 0 0 1 3-3h5Z"/></symbol>
    <symbol id="i-library" viewBox="0 0 24 24"><path d="m3 9 9-5 9 5M5 10v8M9.7 10v8M14.3 10v8M19 10v8M3 20h18"/></symbol>
    <symbol id="i-inbox" viewBox="0 0 24 24"><path d="m4 5 2.3 9.5h3.2a2.7 2.7 0 0 0 5 0h3.2L20 5Z"/><path d="M6.3 14.5H4v4.2h16v-4.2h-2.3"/></symbol>
    <symbol id="i-chart" viewBox="0 0 24 24"><path d="M4 20V10M10 20V4M16 20v-7M22 20H2"/></symbol>
    <symbol id="i-trend" viewBox="0 0 24 24"><path d="M3 19h18M5 16l4.2-4.2 3.2 2.8L19 7"/><path d="M15.5 7H19v3.5"/></symbol>
    <symbol id="i-trophy" viewBox="0 0 24 24"><path d="M8 4h8v4.5a4 4 0 0 1-8 0ZM8 6H4v1.5A4.5 4.5 0 0 0 8.5 12M16 6h4v1.5a4.5 4.5 0 0 1-4.5 4.5M12 12.5V18M8.5 21h7M9.5 18h5"/></symbol>
    <symbol id="i-globe" viewBox="0 0 24 24"><circle cx="12" cy="12" r="9"/><path d="M3 12h18M12 3a14.5 14.5 0 0 1 0 18M12 3a14.5 14.5 0 0 0 0 18"/></symbol>
    <symbol id="i-map" viewBox="0 0 24 24"><path d="m3 6 6-3 6 3 6-3v15l-6 3-6-3-6 3ZM9 3v15M15 6v15"/></symbol>
    <symbol id="i-file" viewBox="0 0 24 24"><path d="M6 3h8l4 4v14H6Z"/><path d="M14 3v5h4M9 13h6M9 17h6"/></symbol>
    <symbol id="i-eye" viewBox="0 0 24 24"><path d="M2.8 12s3.4-6 9.2-6 9.2 6 9.2 6-3.4 6-9.2 6-9.2-6-9.2-6Z"/><circle cx="12" cy="12" r="2.5"/></symbol>
    <symbol id="i-flag" viewBox="0 0 24 24"><path d="M5 21V4M5 5h11l-1.8 3L16 11H5"/></symbol>
    <symbol id="i-bell" viewBox="0 0 24 24"><path d="M6 10a6 6 0 0 1 12 0c0 5 2 6 2 6H4s2-1 2-6ZM10 20h4"/></symbol>
    <symbol id="i-heart" viewBox="0 0 24 24"><path d="M20.5 5.7a5 5 0 0 0-7.1 0L12 7.1l-1.4-1.4a5 5 0 0 0-7.1 7.1L12 21l8.5-8.2a5 5 0 0 0 0-7.1Z"/></symbol>
    <symbol id="i-star" viewBox="0 0 24 24"><path d="m12 3 2.8 5.8 6.2.9-4.5 4.4 1.1 6.2-5.6-3-5.6 3 1.1-6.2L3 9.7l6.2-.9Z"/></symbol>
    <symbol id="i-thumbs" viewBox="0 0 24 24"><path d="M8 11v9H4v-9ZM8 19h8.2a2 2 0 0 0 1.9-1.4l2-6A2 2 0 0 0 18.2 9H14l.7-3.1A2.4 2.4 0 0 0 12.3 3L8 11"/></symbol>
    <symbol id="i-volume" viewBox="0 0 24 24"><path d="M4 9h4l5-4v14l-5-4H4ZM17 9a4 4 0 0 1 0 6M19.5 6.5a8 8 0 0 1 0 11"/></symbol>
    <symbol id="i-medal" viewBox="0 0 24 24"><circle cx="12" cy="14" r="5"/><path d="m8 3 4 6 4-6M9 3h6M12 11v3l2 1"/></symbol>
    <symbol id="i-user" viewBox="0 0 24 24"><circle cx="12" cy="8" r="4"/><path d="M4.5 21a7.5 7.5 0 0 1 15 0"/></symbol>
    <symbol id="i-bot" viewBox="0 0 24 24"><rect x="4" y="7" width="16" height="12" rx="3"/><path d="M12 3v4M8 12h.01M16 12h.01M8 16h8M2 11v4M22 11v4"/></symbol>
    <symbol id="i-crown" viewBox="0 0 24 24"><path d="m3 7 4.5 4L12 4l4.5 7L21 7l-2 11H5ZM5 21h14"/></symbol>
    <symbol id="i-cards" viewBox="0 0 24 24"><rect x="7" y="3" width="12" height="16" rx="2" transform="rotate(8 13 11)"/><path d="M8 6H5a2 2 0 0 0-2 2v11a2 2 0 0 0 2 2h8"/></symbol>
    <symbol id="i-users" viewBox="0 0 24 24"><circle cx="9" cy="8" r="3"/><path d="M3.5 19a5.5 5.5 0 0 1 11 0M16 6.5a3 3 0 0 1 0 5.8M17 14a5 5 0 0 1 4 5"/></symbol>
    <symbol id="i-sprout" viewBox="0 0 24 24"><path d="M12 21V11M12 13C7 13 4 10 4 6c5 0 8 3 8 7ZM12 11c0-4 3-7 8-7 0 4-3 7-8 7Z"/></symbol>
    <symbol id="i-flame" viewBox="0 0 24 24"><path d="M13 2c1 5-3 6-1 10 1-2 3-3 4-5 3 3 5 7 3 11a8 8 0 0 1-14-1c-2-5 2-9 5-12 0 3 1 4 3 5"/></symbol>
    <symbol id="i-stop" viewBox="0 0 24 24"><rect x="6" y="6" width="12" height="12" rx="1.5"/></symbol>
    <symbol id="i-warning" viewBox="0 0 24 24"><path d="m12 3 9.2 17H2.8Z"/><path d="M12 9v5M12 17.5h.01"/></symbol>
    <symbol id="i-refresh" viewBox="0 0 24 24"><path d="M20 7v5h-5M4 17v-5h5"/><path d="M18.2 9a7 7 0 0 0-11.6-2.4L4 9M5.8 15a7 7 0 0 0 11.6 2.4L20 15"/></symbol>
    <symbol id="i-repeat" viewBox="0 0 24 24"><path d="m17 2 4 4-4 4M3 11V9a3 3 0 0 1 3-3h15M7 22l-4-4 4-4M21 13v2a3 3 0 0 1-3 3H3"/></symbol>
    <symbol id="i-repeat-one" viewBox="0 0 24 24"><path d="m17 2 4 4-4 4M3 11V9a3 3 0 0 1 3-3h15M7 22l-4-4 4-4M21 13v2a3 3 0 0 1-3 3H3M11 11h1v4"/></symbol>
    <symbol id="i-shuffle" viewBox="0 0 24 24"><path d="M16 3h5v5M4 20 21 3M21 16v5h-5M15 15l6 6M4 4l5 5"/></symbol>
    <symbol id="i-check" viewBox="0 0 24 24"><path d="m5 12.5 4.2 4.2L19 7"/></symbol>
    <symbol id="i-attachment" viewBox="0 0 24 24"><path d="m8.5 12.5 6.2-6.2a3.2 3.2 0 0 1 4.5 4.5l-8 8a5 5 0 0 1-7.1-7.1l8.2-8.2"/><path d="m7.2 15.8 7.7-7.7"/></symbol>
    <symbol id="i-puzzle" viewBox="0 0 24 24"><path d="M4 4h6a2 2 0 1 0 4 0h6v6a2 2 0 1 0 0 4v6h-6a2 2 0 1 0-4 0H4v-6a2 2 0 1 0 0-4Z"/></symbol>
    <symbol id="i-pin" viewBox="0 0 24 24"><path d="M12 21s6-5.6 6-11a6 6 0 1 0-12 0c0 5.4 6 11 6 11Z"/><circle cx="12" cy="10" r="2"/></symbol>
    <symbol id="i-calendar" viewBox="0 0 24 24"><rect x="3" y="5" width="18" height="16" rx="2"/><path d="M8 3v4M16 3v4M3 10h18M8 14h.01M12 14h.01M16 14h.01M8 18h.01M12 18h.01"/></symbol>
    <symbol id="i-question" viewBox="0 0 24 24"><circle cx="12" cy="12" r="9"/><path d="M9.7 9a2.5 2.5 0 1 1 3.8 2.1c-1 .6-1.5 1.1-1.5 2.4M12 17.5h.01"/></symbol>
    <symbol id="i-bowl" viewBox="0 0 24 24"><path d="M3 10h18a9 9 0 0 1-18 0ZM7 21h10M8 7c0-2 2-2 2-4M13 7c0-2 2-2 2-4"/></symbol>
    <symbol id="i-clock" viewBox="0 0 24 24"><circle cx="12" cy="12" r="9"/><path d="M12 7v5l3.5 2"/></symbol>
    <symbol id="i-journal" viewBox="0 0 24 24"><path d="M6 3h13v18H6a3 3 0 0 1-3-3V6a3 3 0 0 1 3-3ZM6 3v18M10 8h5M10 12h5"/></symbol>
    <symbol id="i-settings" viewBox="0 0 24 24"><circle cx="12" cy="12" r="3"/><path d="M19.4 15a1.7 1.7 0 0 0 .3 1.8l.1.1-2.9 2.9-.1-.1a1.7 1.7 0 0 0-1.8-.3 1.7 1.7 0 0 0-1 1.5V21h-4v-.1a1.7 1.7 0 0 0-1-1.5 1.7 1.7 0 0 0-1.8.3l-.1.1-2.9-2.9.1-.1a1.7 1.7 0 0 0 .3-1.8 1.7 1.7 0 0 0-1.5-1H3v-4h.1a1.7 1.7 0 0 0 1.5-1 1.7 1.7 0 0 0-.3-1.8l-.1-.1 2.9-2.9.1.1a1.7 1.7 0 0 0 1.8.3 1.7 1.7 0 0 0 1-1.5V3h4v.1a1.7 1.7 0 0 0 1 1.5 1.7 1.7 0 0 0 1.8-.3l.1-.1 2.9 2.9-.1.1a1.7 1.7 0 0 0-.3 1.8 1.7 1.7 0 0 0 1.5 1h.1v4h-.1a1.7 1.7 0 0 0-1.5 1Z"/></symbol>
    <symbol id="i-transfer" viewBox="0 0 24 24"><path d="M7 7h13M16 3l4 4-4 4M17 17H4M8 13l-4 4 4 4"/></symbol>
    <symbol id="i-comment" viewBox="0 0 24 24"><path d="M4 5h16v11H9l-5 4Z"/></symbol>
    <symbol id="i-arrow" viewBox="0 0 24 24"><path d="M5 12h14M14 7l5 5-5 5"/></symbol>
    <symbol id="i-pause" viewBox="0 0 24 24"><rect x="6" y="5" width="4" height="14" rx="1"/><rect x="14" y="5" width="4" height="14" rx="1"/></symbol>
    <symbol id="i-trash" viewBox="0 0 24 24"><path d="M4 7h16M9 3h6l1 4H8ZM6 7l1 14h10l1-14M10 11v6M14 11v6"/></symbol>
    <symbol id="i-camera" viewBox="0 0 24 24"><path d="M4 7h4l1.5-2h5L16 7h4v12H4Z"/><circle cx="12" cy="13" r="3.5"/></symbol>
    <symbol id="i-image" viewBox="0 0 24 24"><rect x="3" y="4" width="18" height="16" rx="2"/><circle cx="8.5" cy="9" r="1.5"/><path d="m4 18 5.5-5.5 3.5 3 2.5-2.5 4.5 5"/></symbol>
    <symbol id="i-external" viewBox="0 0 24 24"><path d="M14 4h6v6M20 4l-9 9"/><path d="M18 13v7H4V6h7"/></symbol>
    <symbol id="i-chevron" viewBox="0 0 24 24"><path d="m6 9 6 6 6-6"/></symbol>
    <symbol id="i-gem" viewBox="0 0 24 24"><path d="m4 8 4-5h8l4 5-8 13Z"/><path d="M4 8h16M8 3l4 5 4-5M8 8l4 13 4-13"/></symbol>
    <symbol id="i-sparkle" viewBox="0 0 24 24"><path d="m12 3 1.4 5.6L19 10l-5.6 1.4L12 17l-1.4-5.6L5 10l5.6-1.4ZM19 16l.6 2.4L22 19l-2.4.6L19 22l-.6-2.4L16 19l2.4-.6Z"/></symbol>
    <symbol id="i-lock" viewBox="0 0 24 24"><rect x="5" y="10" width="14" height="11" rx="2"/><path d="M8 10V7a4 4 0 0 1 8 0v3M12 14v3"/></symbol>
    <symbol id="i-user-off" viewBox="0 0 24 24"><circle cx="12" cy="8" r="4"/><path d="M4.5 21a7.5 7.5 0 0 1 12.7-5.4M4 4l16 16"/></symbol>
    <symbol id="i-flask" viewBox="0 0 24 24"><path d="M9 3h6M10 3v6l-5 9a2 2 0 0 0 1.8 3h10.4A2 2 0 0 0 19 18l-5-9V3M7.5 15h9"/></symbol>
    <symbol id="i-coffee" viewBox="0 0 24 24"><path d="M4 8h13v7a5 5 0 0 1-5 5H9a5 5 0 0 1-5-5ZM17 10h2a3 3 0 0 1 0 6h-2M7 3v2M11 3v2M15 3v2"/></symbol>
    <symbol id="i-toolbox" viewBox="0 0 24 24"><rect x="3" y="7" width="18" height="13" rx="2"/><path d="M8 7V4h8v3M3 12h18M10 12v3h4v-3"/></symbol>
    <symbol id="i-cart" viewBox="0 0 24 24"><path d="M3 4h2l2.2 10h10.9l2-7H6M9 19h.01M17 19h.01"/><circle cx="9" cy="19" r="1.5"/><circle cx="17" cy="19" r="1.5"/></symbol>
    <symbol id="i-train" viewBox="0 0 24 24"><rect x="5" y="3" width="14" height="15" rx="3"/><path d="M8 7h8M8 12h.01M16 12h.01M8 18l-2 3M16 18l2 3M8 21h8"/></symbol>
    <symbol id="i-bag" viewBox="0 0 24 24"><path d="M5 8h14l1 13H4ZM9 8V6a3 3 0 0 1 6 0v2"/></symbol>
    <symbol id="i-home" viewBox="0 0 24 24"><path d="m3 11 9-8 9 8M5 10v11h14V10M9 21v-7h6v7"/></symbol>
    <symbol id="i-gamepad" viewBox="0 0 24 24"><path d="M7 7h10a5 5 0 0 1 4.6 7l-1.3 3a2.5 2.5 0 0 1-4.1.8L14 16h-4l-2.2 1.8a2.5 2.5 0 0 1-4.1-.8l-1.3-3A5 5 0 0 1 7 7Z"/><path d="M7 11v4M5 13h4M16.5 12h.01M18.5 14h.01"/></symbol>
    <symbol id="i-medical" viewBox="0 0 24 24"><rect x="4" y="6" width="16" height="14" rx="2"/><path d="M9 6V3h6v3M12 10v6M9 13h6"/></symbol>
    <symbol id="i-wallet" viewBox="0 0 24 24"><path d="M4 6h14a2 2 0 0 1 2 2v11H4a2 2 0 0 1-2-2V7a3 3 0 0 1 3-3h12v2"/><path d="M15 11h7v5h-7a2.5 2.5 0 0 1 0-5Z"/></symbol>
    <symbol id="i-briefcase" viewBox="0 0 24 24"><rect x="3" y="7" width="18" height="13" rx="2"/><path d="M8 7V4h8v3M3 12h18M10 12v2h4v-2"/></symbol>
    <symbol id="i-receipt" viewBox="0 0 24 24"><path d="M6 3h12v18l-3-2-3 2-3-2-3 2Z"/><path d="M9 8h6M9 12h6M9 16h3"/></symbol>
    <symbol id="i-gift" viewBox="0 0 24 24"><rect x="3" y="9" width="18" height="12" rx="1"/><path d="M12 9v12M3 13h18M5 9V6h14v3M12 6c-1-3-5-3-5-.5C7 7 9 8 12 9M12 6c1-3 5-3 5-.5 0 1.5-2 2.5-5 3.5"/></symbol>
    <symbol id="i-cloud" viewBox="0 0 24 24"><path d="M7 19h11a4 4 0 0 0 .7-7.9A7 7 0 0 0 5.4 9.5 4.8 4.8 0 0 0 7 19Z"/></symbol>
    <symbol id="i-offline" viewBox="0 0 24 24"><path d="M5 16a4.5 4.5 0 0 1 1.5-8.7A7 7 0 0 1 19 10M4 4l16 16M9 19h8"/></symbol>
    <symbol id="i-paw" viewBox="0 0 24 24"><ellipse cx="12" cy="16" rx="5" ry="4"/><circle cx="5.5" cy="10" r="2"/><circle cx="9.5" cy="6.5" r="2"/><circle cx="14.5" cy="6.5" r="2"/><circle cx="18.5" cy="10" r="2"/></symbol>
    <symbol id="i-cat" viewBox="0 0 24 24"><path d="M6 8 5 3l5 3h4l5-3-1 5a8 8 0 1 1-12 0Z"/><path d="M9 12h.01M15 12h.01M10 16c1 .7 3 .7 4 0M12 14v1M7 15H3M17 15h4"/></symbol>
    <symbol id="i-dog" viewBox="0 0 24 24"><path d="M7 7 4 4l-1 7 4 2M17 7l3-3 1 7-4 2M7 7c1-2 9-2 10 0v8a5 5 0 0 1-10 0Z"/><path d="M9 11h.01M15 11h.01M10 15c1 1 3 1 4 0"/></symbol>
    <symbol id="i-rabbit" viewBox="0 0 24 24"><path d="M8 8C5 5 5 2 7 2s3 3 3 6M16 8c3-3 3-6 1-6s-3 3-3 6"/><circle cx="12" cy="14" r="7"/><path d="M9.5 13h.01M14.5 13h.01M10 17c1 .7 3 .7 4 0"/></symbol>
    <symbol id="i-scale" viewBox="0 0 24 24"><path d="M12 4v17M5 7h14M7 7l-4 7h8ZM17 7l-4 7h8ZM8 21h8"/></symbol>
    <symbol id="i-key" viewBox="0 0 24 24"><circle cx="8" cy="12" r="4"/><path d="M12 12h9M17 12v3M20 12v2"/></symbol>
    <symbol id="i-link" viewBox="0 0 24 24"><path d="m9 15-2 2a4 4 0 0 1-6-6l4-4a4 4 0 0 1 6 0M15 9l2-2a4 4 0 0 1 6 6l-4 4a4 4 0 0 1-6 0M8 12h8"/></symbol>
    <symbol id="i-copy" viewBox="0 0 24 24"><rect x="8" y="8" width="12" height="12" rx="2"/><path d="M16 8V4H4v12h4"/></symbol>
    <symbol id="i-megaphone" viewBox="0 0 24 24"><path d="m4 10 13-5v14L4 14ZM4 10v4M7 15l2 6h4l-2-7M20 9v6"/></symbol>
    <symbol id="i-ball" viewBox="0 0 24 24"><circle cx="12" cy="12" r="9"/><path d="M6 6c3 3 9 9 12 12M18 6c-4 1-8 5-12 12"/></symbol>
    <symbol id="i-fish" viewBox="0 0 24 24"><path d="M4 12c4-5 10-5 14 0-4 5-10 5-14 0ZM18 12l4-4v8ZM9 10h.01"/></symbol>
    <symbol id="i-drumstick" viewBox="0 0 24 24"><path d="M14 4c4 0 6 3 6 6s-3 6-7 6l-3-3c0-5 1-9 4-9Z"/><path d="m10 13-5 5M5 18c-3-1-3 3 0 2 1 3 4 1 2-1"/></symbol>
    <symbol id="i-bone" viewBox="0 0 24 24"><path d="m8 8 8 8M8 8C6 10 3 9 3 7s2-3 4-2c-1-2 0-4 2-4s3 3 1 5M16 16c-2 2-1 5 1 5s3-2 2-4c2 1 4 0 4-2s-3-3-5-1"/></symbol>
    <symbol id="i-plane" viewBox="0 0 24 24"><path d="m3 13 18-9-6 16-3-6ZM12 14l9-10"/></symbol>
    <symbol id="i-rocket" viewBox="0 0 24 24"><path d="M9 15 5 19M14 20l-2-5-3-3-5-2 4-2c2.5-4.4 6.2-6.3 11-6-0.3 4.8-2.2 8.5-6 11Z"/><circle cx="15.5" cy="6.5" r="1.8"/><path d="M6 14c-2 1-3 3-3 6 3 0 5-1 6-3"/></symbol>
    <symbol id="i-cake" viewBox="0 0 24 24"><path d="M4 11h16v10H4ZM4 15c2 2 4-2 6 0s4-2 6 0 4-2 4-2M8 11V7M12 11V5M16 11V7"/></symbol>
    <symbol id="i-graduation" viewBox="0 0 24 24"><path d="m2 9 10-5 10 5-10 5ZM6 11v5c3 3 9 3 12 0v-5M22 9v6"/></symbol>
    <symbol id="i-ring" viewBox="0 0 24 24"><circle cx="12" cy="14" r="7"/><path d="m8 6 2-3h4l2 3-4 3Z"/></symbol>
    <symbol id="i-dumbbell" viewBox="0 0 24 24"><path d="M7 8v8M4 9v6M17 8v8M20 9v6M7 12h10M2 11v2M22 11v2"/></symbol>
    <symbol id="i-wolf" viewBox="0 0 24 24"><path d="m5 8 1-5 5 3h2l5-3 1 5-2 11-5 3-5-3Z"/><path d="M9 11h.01M15 11h.01M10 17l2-2 2 2M8 14l4 2 4-2"/></symbol>
    <symbol id="i-crystal" viewBox="0 0 24 24"><circle cx="12" cy="10" r="7"/><path d="M8 17h8l2 4H6ZM8 10c2-3 6-3 8 0-2 3-6 3-8 0Z"/></symbol>
    <symbol id="i-clown" viewBox="0 0 24 24"><circle cx="12" cy="12" r="9"/><path d="M8 9h.01M16 9h.01M9 16c2 2 4 2 6 0"/><circle cx="12" cy="12" r="1.5"/><path d="M5 5 3 2M19 5l2-3"/></symbol>
    <symbol id="i-shield" viewBox="0 0 24 24"><path d="M12 3 4 6v6c0 5 3.5 8 8 10 4.5-2 8-5 8-10V6Z"/></symbol>
    <symbol id="i-door" viewBox="0 0 24 24"><path d="M5 21V3h14v18M9 21V7h7v14M13 14h.01"/></symbol>
    <symbol id="i-bulb" viewBox="0 0 24 24"><path d="M8 15a7 7 0 1 1 8 0c-1 1-1 2-1 3H9c0-1 0-2-1-3ZM9 21h6"/></symbol>
    <symbol id="i-hourglass" viewBox="0 0 24 24"><path d="M6 3h12M6 21h12M8 3c0 5 4 5 4 9s-4 4-4 9M16 3c0 5-4 5-4 9s4 4 4 9"/></symbol>
    <symbol id="i-tombstone" viewBox="0 0 24 24"><path d="M6 21V10a6 6 0 0 1 12 0v11ZM3 21h18M9 11h6M12 8v6"/></symbol>
    <symbol id="i-bookmark" viewBox="0 0 24 24"><path d="M6 3h12v18l-6-4-6 4Z"/></symbol>
    <symbol id="i-dice" viewBox="0 0 24 24"><rect x="3" y="3" width="18" height="18" rx="3"/><path d="M8 8h.01M16 8h.01M12 12h.01M8 16h.01M16 16h.01"/></symbol>
    <symbol id="i-save" viewBox="0 0 24 24"><path d="M4 3h14l2 2v16H4ZM8 3v6h8V3M8 21v-7h8v7"/></symbol>
    <symbol id="i-search" viewBox="0 0 24 24"><circle cx="10.5" cy="10.5" r="7"/><path d="m16 16 5 5"/></symbol>
    <symbol id="i-thermometer" viewBox="0 0 24 24"><path d="M10 5a2 2 0 0 1 4 0v9.3a4 4 0 1 1-4 0ZM12 8v8"/></symbol>
    <symbol id="i-ruler" viewBox="0 0 24 24"><path d="m4 17 13-13 3 3L7 20Z"/><path d="m14 7 3 3M11 10l2 2M8 13l3 3"/></symbol>
    <symbol id="i-lightning" viewBox="0 0 24 24"><path d="m13 2-8 12h7l-1 8 8-12h-7Z"/></symbol>
    <symbol id="i-skip-back" viewBox="0 0 24 24"><path d="M6 5v14M18 5 8 12l10 7Z"/></symbol>
    <symbol id="i-skip-forward" viewBox="0 0 24 24"><path d="M18 5v14M6 5l10 7-10 7Z"/></symbol>
    <symbol id="i-list" viewBox="0 0 24 24"><path d="M8 6h13M8 12h13M8 18h13M3 6h.01M3 12h.01M3 18h.01"/></symbol>
    <symbol id="i-grid" viewBox="0 0 24 24"><rect x="3" y="3" width="7" height="7"/><rect x="14" y="3" width="7" height="7"/><rect x="3" y="14" width="7" height="7"/><rect x="14" y="14" width="7" height="7"/></symbol>
    <symbol id="i-phone" viewBox="0 0 24 24"><rect x="7" y="2" width="10" height="20" rx="2"/><path d="M10 5h4M12 19h.01"/></symbol>
    <symbol id="i-laptop" viewBox="0 0 24 24"><rect x="5" y="4" width="14" height="11" rx="1"/><path d="m3 18 2-3h14l2 3Z"/></symbol>
    <symbol id="i-monitor" viewBox="0 0 24 24"><rect x="3" y="3" width="18" height="14" rx="2"/><path d="M12 17v4M8 21h8"/></symbol>
    <symbol id="i-tv" viewBox="0 0 24 24"><rect x="3" y="5" width="18" height="15" rx="2"/><path d="m8 2 4 3 4-3M7.5 10h3M9 10v5M12 10l2 5 2-5"/></symbol>
    <symbol id="i-suitcase" viewBox="0 0 24 24"><rect x="4" y="7" width="16" height="13" rx="2"/><path d="M9 7V4h6v3M8 11v5M16 11v5M4 13h16"/></symbol>
    <symbol id="i-mail" viewBox="0 0 24 24"><rect x="3" y="5" width="18" height="14" rx="2"/><path d="m4 7 8 6 8-6"/></symbol>
    <symbol id="i-upload" viewBox="0 0 24 24"><path d="M12 16V4M7.5 8.5 12 4l4.5 4.5M4 20h16"/></symbol>
    <symbol id="i-cloud-page" viewBox="0 0 24 24"><path d="M8 17H6a4 4 0 0 1-.4-8A6.5 6.5 0 0 1 18 10.5"/><path d="M11 10h6l3 3v8h-9Z M17 10v3h3M13.5 18.5l4-4"/></symbol>
    <symbol id="i-bookmark-off" viewBox="0 0 24 24"><path d="M7 3h10v18l-5-3-5 3Z M4 4l16 16"/></symbol>
    <symbol id="i-exit" viewBox="0 0 24 24"><path d="M10 4H5v16h5M13 8l4 4-4 4M8 12h9"/></symbol>
    <symbol id="i-user-minus" viewBox="0 0 24 24"><circle cx="9" cy="8" r="3"/><path d="M3 20a6 6 0 0 1 12 0M16 12h6"/></symbol>
    <symbol id="i-history" viewBox="0 0 24 24"><path d="M4 7v5h5M5.3 16a8 8 0 1 0-.6-7"/><path d="M12 8v5l3 2"/></symbol>
    <symbol id="i-hourglass-fine" viewBox="0 0 24 24"><path d="M6 3h12M6 21h12M8 3c0 4.8 4 5.2 4 9s-4 4.2-4 9M16 3c0 4.8-4 5.2-4 9s4 4.2 4 9"/><path d="m9.2 6 2.8 3 2.8-3M9.2 18h5.6M12 13.5h.01"/></symbol>
    <symbol id="i-ring-double" viewBox="0 0 24 24"><circle cx="9" cy="14" r="6"/><circle cx="15" cy="14" r="6"/><path d="m7 6 2-3 2 3-2 2ZM13 6l2-3 2 3-2 2Z"/></symbol>
    <symbol id="i-knot" viewBox="0 0 24 24"><path d="M7 8c-3 0-5 1.8-5 4s2 4 5 4c4 0 6-8 10-8 3 0 5 1.8 5 4s-2 4-5 4C13 16 11 8 7 8Z"/></symbol>
    <symbol id="i-heart-calendar" viewBox="0 0 24 24"><rect x="3" y="5" width="18" height="16" rx="2"/><path d="M8 3v4M16 3v4M3 10h18M12 18l-3-2.8a2 2 0 0 1 3-3 2 2 0 0 1 3 3Z"/></symbol>
    <symbol id="i-slice" viewBox="0 0 24 24"><path d="m4 18 14-14 2 2L6 20ZM5 5l14 14M3 3l4 1-3 3Z"/></symbol>
    <symbol id="i-blade" viewBox="0 0 24 24"><path d="M4 19 19 4c1.7 4.8-.4 9.2-6.2 13.5L9 21ZM4 19l-2 2M14 9l3 3"/></symbol>
    <symbol id="i-repeat-calendar" viewBox="0 0 24 24"><rect x="5" y="6" width="14" height="14" rx="2"/><path d="M9 3v5M15 3v5M5 10h14M9 15a3 3 0 0 1 5-2M15 12v3h-3M15 16a3 3 0 0 1-5 2M9 19v-3h3"/></symbol>
    <symbol id="i-fruit-cut" viewBox="0 0 24 24">
        <path d="M17.7 5.2C21 8.5 21.1 14 18 17.3c-3.2 3.4-8.7 3.6-12.1.4C2.6 14.6 2.3 9.5 5.2 6"/>
        <path d="M3.5 20.5 20.5 3.5M8.7 9.8l.1.1M12.2 13.3l.1.1M15.7 16.8l.1.1"/>
      </symbol>
    <symbol id="i-speed-slash" viewBox="0 0 24 24">
        <path d="M3 18 14 7M8 21 21 8M4 12 11 5"/>
        <path d="M17.5 4.5h.01M20 3h.01M3 21h.01"/>
      </symbol>
    <symbol id="i-citrus-cut" viewBox="0 0 24 24">
        <circle cx="12" cy="12" r="8"/>
        <path d="M12 4v16M4 12h16M6.3 6.3l11.4 11.4M3 21 21 3"/>
      </symbol>
    <symbol id="i-katana-fruit" viewBox="0 0 24 24">
        <path d="M4 14c2.7-7.5 11-10.4 16-5.8-2 7.3-10.5 10.5-16 5.8Z"/>
        <path d="M2 18 20 6M16.5 4.5l3 3M2 18l-1 3 3-1"/>
      </symbol>
    <symbol id="i-ninja-disc" viewBox="0 0 24 24">
        <path d="M12 3c1.1 3.8 3.2 5 7.5 4.5-3.2 2.4-3.5 5-.8 8.3-3.8-1.1-6 .3-6.7 4.2-.8-3.9-3-5.2-6.8-4.2 2.7-3.2 2.4-5.8-.7-8.3C8.7 8 10.9 6.8 12 3Z"/>
        <circle cx="12" cy="12" r="2"/>
        <path d="m4 20 16-16"/>
      </symbol>
    <symbol id="i-tz-dial" viewBox="0 0 24 24">
        <circle cx="12" cy="12" r="8.5"/>
        <path d="M3.5 12h17M12 3.5c2.4 2.5 3.6 5.3 3.6 8.5S14.4 18 12 20.5M12 3.5C9.6 6 8.4 8.8 8.4 12s1.2 6 3.6 8.5"/>
        <path d="M12 7.8V12l2.8 1.8"/>
      </symbol>
    <symbol id="i-transfer-accounts" viewBox="0 0 24 24">
        <rect x="3" y="4" width="7" height="5" rx="1.3"/>
        <rect x="14" y="15" width="7" height="5" rx="1.3"/>
        <path d="M9 16H5.5A2.5 2.5 0 0 1 3 13.5V12M15 8h3.5a2.5 2.5 0 0 1 2.5 2.5V12"/>
        <path d="m6 13-3-1 1-3M18 11l3 1-1 3"/>
      </symbol>
    <symbol id="i-recurring-date" viewBox="0 0 24 24">
        <rect x="4" y="5" width="16" height="15" rx="2"/>
        <path d="M8 3v4M16 3v4M4 9h16M9 15a3.2 3.2 0 0 1 5.4-2.3M15 11.5v2.8h-2.8M15 16a3.2 3.2 0 0 1-5.4 2.3M9 19.5v-2.8h2.8"/>
      </symbol>
    <symbol id="i-income-ledger" viewBox="0 0 24 24">
        <path d="M5 14v6h14v-6M12 3v12M8 11l4 4 4-4M7 8h10"/>
      </symbol>
    <symbol id="i-expense-ledger" viewBox="0 0 24 24">
        <path d="M5 14v6h14v-6M12 16V4M8 8l4-4 4 4M7 12h10"/>
      </symbol>
    <symbol id="i-tz-arc" viewBox="0 0 24 24">
        <path d="M5 17.5A8 8 0 1 1 19.5 15M3 12h9M12 3c-2.3 2.5-3.5 5.5-3.5 9"/>
        <path d="M16 13v4l2.5 1.5"/>
      </symbol>
    <symbol id="i-transfer-route" viewBox="0 0 24 24">
        <circle cx="5" cy="7" r="2"/><circle cx="19" cy="17" r="2"/>
        <path d="M7 7h7.5A4.5 4.5 0 0 1 19 11.5V15M16 12l3 3 3-3"/>
      </symbol>
    <symbol id="i-recurring-orbit" viewBox="0 0 24 24">
        <path d="M18.5 8A7.5 7.5 0 0 0 5 7l-2 3M5.5 16A7.5 7.5 0 0 0 19 17l2-3"/>
        <path d="M3 5v5h5M21 19v-5h-5"/>
        <circle cx="12" cy="12" r="1.5"/>
      </symbol>
    <symbol id="i-expand" viewBox="0 0 24 24">
        <path d="M9 4H4v5M15 4h5v5M9 20H4v-5M15 20h5v-5"/>
        <path d="m4 9 5-5M15 4l5 5M4 15l5 5M15 20l5-5"/>
      </symbol>
  </defs>
</svg>
